# xmcd
#
# Track frame offsets: 
#        150
#        18689
#        32058
#        46165
#        64320
#        78027
#        96289
#        114508
#        129308
#        144322
#        158787
#        179756
#        194616
#        209058
#        224338
#        244452
#        258924
#        273531
#
# Disc length: 3856 seconds
#
# Revision: 5
# Processed by: cddbd v1.5.2PL0 Copyright (c) Steve Scherf et al.
# Submitted via: ExactAudioCopyFreeDBPlugin 1.0
#
DISCID=130f0e12
DTITLE=Bellamy Brothers - Best Of The Best - Disc  2
DYEAR=1900
DGENRE=Country
TTITLE0=I'll Give You All My Love Tonight
TTITLE1=Iti's Rainini Girls
TTITLE2=Ying Yang
TTITLE3=Melt Down
TTITLE4=Ramblin' Again
TTITLE5=We Donit Wanna Go For It
TTITLE6=Youre Name
TTITLE7=White Trash
TTITLE8=Rebels Without A Clue
TTITLE9=I'll Help You Hurt Him
TTITLE10=The Fountain Of Middle Age
TTITLE11=Stayin'in Love
TTITLE12=Get Your Priorities In Line
TTITLE13=When The Music Meant Everything
TTITLE14=The Courthouse
TTITLE15=The Andy Griffith Show
TTITLE16=A Little Naive
TTITLE17=Rip Of The Knob
EXTD=ID3G: 2
EXTT0=
EXTT1=
EXTT2=
EXTT3=
EXTT4=
EXTT5=
EXTT6=
EXTT7=
EXTT8=
EXTT9=
EXTT10=
EXTT11=
EXTT12=
EXTT13=
EXTT14=
EXTT15=
EXTT16=
EXTT17=
PLAYORDER=
